HIERARCHY
ROOT Hips
{
	OFFSET 0.000000 0.000000 0.000000 
	CHANNELS 6 Xposition Yposition Zposition Zrotation Xrotation Yrotation
	JOINT Spine
	{
		OFFSET -0.000000 0.081317 0.000000 
		CHANNELS 3 Zrotation Xrotation Yrotation
		JOINT Spine1
		{
			OFFSET -0.000000 0.225200 0.000000 
			CHANNELS 3 Zrotation Xrotation Yrotation
			JOINT Neck
			{
				OFFSET -0.000000 0.224275 0.020389 
				CHANNELS 3 Zrotation Xrotation Yrotation
				JOINT Head
				{
					OFFSET -0.000000 0.138833 -0.019833 
					CHANNELS 3 Zrotation Xrotation Yrotation
					End Site
					{
						OFFSET -0.000000 0.198333 0.000000 
					}
				}
			}
			JOINT LeftShoulder
			{
				OFFSET 0.039732 0.208237 -0.000812 
				CHANNELS 3 Zrotation Xrotation Yrotation
				JOINT LeftArm
				{
					OFFSET 0.110955 0.000000 0.000000 
					CHANNELS 3 Zrotation Xrotation Yrotation
					JOINT LeftForeArm
					{
						OFFSET 0.324523 0.000000 0.000000 
						CHANNELS 3 Zrotation Xrotation Yrotation
						JOINT LeftHand
						{
							OFFSET 0.302601 0.000000 0.000000 
							CHANNELS 3 Zrotation Xrotation Yrotation
							End Site
							{
								OFFSET 0.148750 0.000000 0.000000 
							}
						}
					}
				}
			}
			JOINT RightShoulder
			{
				OFFSET -0.039598 0.208237 -0.000812 
				CHANNELS 3 Zrotation Xrotation Yrotation
				JOINT RightArm
				{
					OFFSET -0.110955 0.000000 0.000000 
					CHANNELS 3 Zrotation Xrotation Yrotation
					JOINT RightForeArm
					{
						OFFSET -0.324523 0.000000 0.000000 
						CHANNELS 3 Zrotation Xrotation Yrotation
						JOINT RightHand
						{
							OFFSET -0.302601 0.000000 0.000000 
							CHANNELS 3 Zrotation Xrotation Yrotation
							End Site
							{
								OFFSET -0.148750 0.000000 0.000000 
							}
						}
					}
				}
			}
		}
	}
	JOINT LeftUpLeg
	{
		OFFSET 0.099167 0.000000 0.000000 
		CHANNELS 3 Zrotation Xrotation Yrotation
		JOINT LeftLeg
		{
			OFFSET -0.000000 -0.380753 0.000000 
			CHANNELS 3 Zrotation Xrotation Yrotation
			JOINT LeftFoot
			{
				OFFSET -0.000000 -0.440093 0.000000 
				CHANNELS 3 Zrotation Xrotation Yrotation
				JOINT LeftToeBase
				{
					OFFSET -0.000000 -0.064458 0.148750 
					CHANNELS 3 Zrotation Xrotation Yrotation
					End Site
					{
						OFFSET -0.000000 0.000000 0.039667 
					}
				}
			}
		}
	}
	JOINT RightUpLeg
	{
		OFFSET -0.099167 0.000000 0.000000 
		CHANNELS 3 Zrotation Xrotation Yrotation
		JOINT RightLeg
		{
			OFFSET -0.000000 -0.380753 0.000000 
			CHANNELS 3 Zrotation Xrotation Yrotation
			JOINT RightFoot
			{
				OFFSET -0.000000 -0.440093 0.000000 
				CHANNELS 3 Zrotation Xrotation Yrotation
				JOINT RightToeBase
				{
					OFFSET -0.000000 -0.064458 0.148750 
					CHANNELS 3 Zrotation Xrotation Yrotation
					End Site
					{
						OFFSET -0.000000 0.000000 0.039667 
					}
				}
			}
		}
	}
}
MOTION
Frames: 12
Frame Time: 0.040185
0.000000 0.933374 0.000000 -3.282920 2.795908 22.001299 -1.647541 -18.551575 -3.574607 4.605201 24.566975 -2.102678 0.685205 19.577873 1.551350 -2.744900 -22.727030 0.717119 -15.633112 5.123469 -6.015970 -59.912022 -0.007307 -17.249756 -2.272778 29.705544 -21.917072 16.816244 27.008150 -17.619221 12.083951 -0.235956 5.849853 58.673862 59.103512 -1.589820 -26.000143 -14.257300 33.077290 12.784796 -7.448795 -8.299352 0.814285 0.175128 21.092596 -0.098617 -2.813557 38.744896 20.514008 18.780268 -63.131123 0.000000 0.000000 0.000000 0.793059 3.356224 -11.166884 0.989142 -1.574221 10.734576 2.805192 20.485916 -17.288137 0.000000 0.000000 0.000000 
0.001626 0.933277 0.000702 -3.374990 2.802244 22.059027 -1.646325 -18.569151 -3.545053 4.654206 24.513798 -2.101197 0.705429 19.495953 1.477884 -2.761580 -22.719028 0.635436 -15.627892 5.134486 -6.020579 -59.875607 0.034212 -17.198246 -2.280056 29.605274 -21.928915 16.517160 26.949316 -17.594906 12.058162 -0.179190 5.853062 58.534588 59.134171 -1.414680 -26.015583 -14.277325 33.103157 12.768581 -7.455460 -8.287049 0.841702 0.211815 21.038826 -0.154815 -2.748117 38.464249 20.245897 18.659973 -62.710583 0.000000 0.000000 0.000000 0.807665 3.379884 -11.146246 0.961731 -1.549585 10.692435 2.989529 20.442730 -17.383608 0.000000 0.000000 0.000000 
0.003465 0.933175 0.001422 -3.460364 2.817079 22.108150 -1.636442 -18.614927 -3.485195 4.694241 24.597525 -2.093994 0.754382 19.241400 1.343006 -2.634555 -22.747940 0.536709 -15.537719 5.017286 -5.951878 -59.977879 0.162157 -17.201792 -2.181959 29.722546 -21.993292 16.433916 27.111406 -17.485989 12.056719 -0.367434 5.709364 58.510689 59.370937 -1.387036 -26.043564 -14.311087 33.141697 12.711383 -7.466827 -8.281127 0.833498 0.261486 20.980124 -0.174736 -2.745140 38.340473 20.143351 18.502077 -62.583126 0.000000 0.000000 0.000000 0.771591 3.411511 -11.012025 0.991198 -1.519239 10.587332 3.079181 20.427601 -17.490822 0.000000 0.000000 0.000000 
0.005668 0.933057 0.002289 -3.509944 2.799436 22.113297 -1.622216 -18.598848 -3.428756 4.776394 24.387623 -2.084848 0.410078 19.158201 1.454394 -2.382536 -22.369810 0.734379 -15.637614 5.148212 -6.012422 -59.963238 -0.077227 -17.173864 -2.337905 29.856747 -21.889111 16.489922 27.208700 -17.542610 12.006965 -0.204526 5.877196 58.621552 59.205032 -1.523689 -26.013273 -14.274574 33.124348 12.709258 -7.447491 -8.320873 0.764202 0.381789 21.057920 -0.207876 -2.767137 38.445232 20.199144 18.250511 -62.686836 0.000000 0.000000 0.000000 0.726692 3.532116 -11.065529 0.981632 -1.555281 10.639731 3.166461 20.426874 -17.537838 0.000000 0.000000 0.000000 
0.007874 0.932975 0.003157 -3.590185 2.808980 22.193665 -1.635400 -18.679729 -3.389090 4.884081 24.494627 -2.098624 0.673723 19.201153 1.312971 -2.702319 -22.782972 0.479567 -15.606138 5.038276 -5.936236 -60.026840 0.148219 -17.199949 -2.290269 29.727448 -22.045935 16.469786 27.088375 -17.511305 11.932423 -0.332598 5.763038 58.650101 59.310112 -1.487632 -25.976063 -14.247492 33.122189 12.736656 -7.410597 -8.111484 0.765691 0.410147 21.435806 -0.248298 -2.669080 37.867321 20.001532 18.170820 -62.553555 0.000000 0.000000 0.000000 0.738224 3.634502 -11.274907 0.919211 -1.635680 10.746675 3.262370 20.452801 -17.549091 0.000000 0.000000 0.000000 
0.010271 0.932921 0.004181 -3.664572 2.800876 22.211290 -1.596672 -18.760012 -3.330430 4.883497 24.502253 -2.080802 0.773933 19.040857 1.299972 -2.778842 -22.464828 0.449488 -15.558954 5.017158 -5.914418 -60.077122 0.121431 -17.223579 -2.289907 29.868055 -22.079361 16.334520 27.250978 -17.510988 11.943075 -0.317197 5.800194 58.706394 59.381504 -1.559315 -25.960276 -14.241720 33.101921 12.696564 -7.433231 -8.304083 0.742829 0.554139 21.477163 -0.299309 -2.764645 38.288727 20.213642 17.643780 -63.214649 0.000000 0.000000 0.000000 0.721282 3.756377 -11.314502 0.879181 -1.691646 10.724070 3.519902 20.448038 -17.608154 0.000000 0.000000 0.000000 
0.012774 0.932725 0.004890 -3.751917 2.857391 22.335194 -1.582570 -18.826687 -3.355567 4.885961 24.450993 -2.087809 0.859292 18.987022 1.271418 -2.822408 -22.381245 0.409092 -15.583440 5.011284 -5.921290 -60.017178 0.195783 -17.275198 -2.269100 29.713015 -22.126383 16.313204 27.088530 -17.581820 11.920152 -0.294468 5.825299 58.771854 59.403477 -1.594448 -25.941059 -14.251872 33.106613 12.760462 -7.448814 -8.266044 0.696388 0.546483 21.284473 -0.328388 -2.727464 38.277096 20.125963 17.542210 -63.130043 0.000000 0.000000 0.000000 0.628297 3.788894 -11.221668 0.923371 -1.693744 10.556421 3.586518 20.413652 -17.665987 0.000000 0.000000 0.000000 
0.015941 0.932602 0.005574 -3.712977 2.884569 22.363491 -1.557395 -18.820961 -3.324338 4.741431 24.418373 -2.046012 0.933991 18.912682 1.264083 -2.772576 -22.288620 0.421438 -15.504341 5.017226 -5.972743 -60.046307 0.086507 -17.364382 -2.364187 29.903599 -21.999365 16.199974 27.282894 -17.603121 11.907572 -0.275460 5.833567 58.779057 59.450294 -1.590162 -25.912992 -14.258693 33.162838 12.692192 -7.450629 -8.311735 0.411405 0.604130 21.061756 -0.194181 -2.749886 38.840023 20.300184 17.450979 -63.562572 0.000000 0.000000 0.000000 0.286989 3.901083 -11.022741 1.092520 -1.652296 10.207325 3.745084 20.332380 -17.545036 0.000000 0.000000 0.000000 
0.019333 0.932372 0.005940 -3.716398 2.984517 22.431269 -1.552958 -18.748415 -3.387349 4.688103 24.123060 -2.043399 0.864547 19.105970 1.237658 -2.606184 -22.355009 0.447408 -15.587005 5.137394 -6.081441 -59.947861 -0.017795 -17.384258 -2.394717 29.859949 -21.897661 16.118189 27.241810 -17.638105 11.824914 -0.064540 5.958596 58.848770 59.335869 -1.646602 -25.999403 -14.307069 33.185692 12.741988 -7.469382 -8.297142 0.141373 0.490306 20.832792 0.042876 -2.629724 40.065025 20.486553 17.137043 -64.853439 0.000000 0.000000 0.000000 0.064006 3.869463 -11.538672 1.088909 -1.553126 10.034988 3.768815 20.204412 -17.015383 0.000000 0.000000 0.000000 
0.023673 0.932023 0.005870 -3.670715 3.135567 22.584364 -1.570325 -18.720345 -3.541278 4.599824 24.050846 -2.071901 0.950473 18.927975 1.184831 -2.580840 -22.250280 0.403880 -15.530615 5.099336 -6.133448 -60.024406 0.067573 -17.508209 -2.387468 29.820995 -21.829060 16.044065 27.220304 -17.596031 11.660007 -0.025358 5.985864 58.952984 59.277000 -1.815125 -26.178411 -14.501575 33.376652 12.716796 -7.557364 -8.251233 -0.180468 0.152878 20.758171 0.092405 -2.019731 38.257717 19.810907 17.135263 -62.892868 0.000000 0.000000 0.000000 -0.373720 3.575942 -11.547713 1.487245 -1.072916 8.581635 2.928410 20.156397 -16.380993 0.000000 0.000000 0.000000 
0.028880 0.931634 0.005533 -3.671582 3.311748 22.867836 -1.524284 -18.709406 -3.816218 4.487433 23.990322 -2.139488 1.091325 18.700068 1.137124 -2.576422 -22.087748 0.360406 -15.465920 5.110070 -6.202904 -60.076691 0.256603 -17.692047 -2.487758 29.652872 -21.874699 16.086647 27.038233 -17.484404 11.546345 -0.071401 5.986025 59.134811 59.041672 -2.205681 -26.315418 -14.712312 33.587326 12.692296 -7.669469 -8.203293 -0.445526 -0.265924 20.104860 -0.072830 -1.179154 34.668919 18.343029 17.261633 -58.271263 0.000000 0.000000 0.000000 -0.838042 3.169051 -11.407443 0.748936 -0.569037 10.709229 5.505798 19.802811 -17.652592 0.000000 0.000000 0.000000 
0.034919 0.931102 0.005274 -3.676430 3.408174 23.171923 -1.506956 -18.629498 -4.170220 4.540650 23.953583 -2.268272 1.390197 18.563568 1.000472 -2.770254 -21.911718 0.163734 -15.359827 5.208496 -6.358854 -60.181332 0.633307 -17.907040 -2.370316 29.500593 -22.111982 16.027906 26.913322 -17.428320 11.423382 -0.123235 6.006334 59.171501 58.711205 -2.602185 -26.340515 -14.792972 33.594517 12.743338 -7.732956 -8.086729 -0.784072 -0.428316 19.341564 -0.060175 -0.812626 33.881451 17.789587 17.669415 -56.883545 0.000000 0.000000 0.000000 -1.439613 2.161377 -11.098392 0.718794 1.414603 10.266041 5.723590 18.875389 -17.714230 0.000000 0.000000 0.000000 
